HIERARCHY
ROOT Hips
{
	OFFSET	0.00	0.00	0.00
	CHANNELS 6 Xposition Yposition Zposition Zrotation Xrotation Yrotation
	JOINT Spine
	{
		OFFSET	 0.00	0.01	 0.00
		CHANNELS 3 Zrotation Xrotation Yrotation
		JOINT Spine1
		{
			OFFSET	 0.00	 2.45913012437421	 0.00
			CHANNELS 3 Zrotation Xrotation Yrotation
            JOINT Neck
            {
                OFFSET	 0.00	 2.48462964506057	 0.00
                CHANNELS 3 Zrotation Xrotation Yrotation
                JOINT Head
                {
                    OFFSET	 0.00	 0.927524780924562	 0.00
                    CHANNELS 3 Zrotation Xrotation Yrotation
                    End Site 
                    {
                        OFFSET	 0.00	 1.14999962169752	 0.00
                    }
                }
            }
			JOINT LeftShoulder
			{
				OFFSET	 0.00	 2.48462964506057	 0.00
				CHANNELS 3 Zrotation Xrotation Yrotation
				JOINT LeftUpArm
				{
					OFFSET	 0.00	 1.24881979654096	 0.00
					CHANNELS 3 Zrotation Xrotation Yrotation
					JOINT LeftForeArm
					{
						OFFSET	 0.00	2.59758046908119	 0.00
						CHANNELS 3 Zrotation Xrotation Yrotation
						JOINT LeftHand
						{
							OFFSET	 0.00	2.45542024364365	 0.00
							CHANNELS 3 Zrotation Xrotation Yrotation
							JOINT LeftHandThumb 
							{
								OFFSET	 0.00	0.00	 0.00
								CHANNELS 3 Zrotation Xrotation Yrotation
								End Site
								{
									OFFSET	 0.00	0.00	1.00000003353624
								}
							}
							JOINT L_Wrist_End 
							{
								OFFSET	 0.00	0.99999967115358	 0.00
								CHANNELS 3 Zrotation Xrotation Yrotation
								End Site 
								{
									OFFSET	 0.00	 0.00	 0.00
								}
							}
						}
					}
				}
			}
			JOINT RightShoulder
			{
				OFFSET	 0.00	 2.48462964506057	 0.00
				CHANNELS 3 Zrotation Xrotation Yrotation
				JOINT RightUpArm
				{
					OFFSET	 0.00	 1.24881979654096	 0.00
					CHANNELS 3 Zrotation Xrotation Yrotation
					JOINT RightForeArm
					{
						OFFSET	 0.00	2.59758046908119	 0.00
						CHANNELS 3 Zrotation Xrotation Yrotation
						JOINT RightHand
						{
							OFFSET	 0.00	2.45542024364365	 0.00
							CHANNELS 3 Zrotation Xrotation Yrotation
							JOINT RightHandThumb 
							{
								OFFSET	 0.00	0.00	 0.00
								CHANNELS 3 Zrotation Xrotation Yrotation
								End Site
								{
									OFFSET	 0.00	0.00	1.00000003353624
								}
							}
							JOINT R_Wrist_End 
							{
								OFFSET	 0.00	0.99999967115358	 0.00
								CHANNELS 3 Zrotation Xrotation Yrotation
								End Site 
								{
									OFFSET	 0.00	 0.00	 0.00
								}
							}
						}
					}
				}
			}
		}
	}
	JOINT LeftUpLeg
	{
		OFFSET	 1.2719394002717	 0.00	 0.00
		CHANNELS 3 Zrotation Xrotation Yrotation
		JOINT LeftLowLeg
		{
			OFFSET	 0.00	-4.3429100912261	 0.00
			CHANNELS 3 Zrotation Xrotation Yrotation
			JOINT LeftFoot
			{
				OFFSET	 0.00	-4.48767017425826	 0.00
				CHANNELS 3 Zrotation Xrotation Yrotation
				JOINT LeftToeBase
                {
                    OFFSET	 0.00	0.00	 1.51507020887566
                    CHANNELS 3 Zrotation Xrotation Yrotation
                    End Site 
                    {
                        OFFSET	 0.00	0.00	 0.75000010571191
                    }
                }
			}
		}
	}
	JOINT RightUpLeg
	{
		OFFSET	 -1.2719393604653	 0.00	 0.00
		CHANNELS 3 Zrotation Xrotation Yrotation
		JOINT RightLowLeg
		{
			OFFSET	 0.00	-4.3429100912261	 0.00
			CHANNELS 3 Zrotation Xrotation Yrotation
			JOINT RightFoot
			{
				OFFSET	 0.00	-4.48767017425826	 0.00
				CHANNELS 3 Zrotation Xrotation Yrotation
				JOINT RightToeBase
                {
                    OFFSET	 0.00	0.00	 1.51507020887566
                    CHANNELS 3 Zrotation Xrotation Yrotation
                    End Site 
                    {
                        OFFSET	 0.00	0.00	 0.749999965609858
                    }
                }   
			}
		}
	}
}
MOTION 
Frames:	10 
Frame Time: 0.02 
 -0.28361900329589845 5.164509887695313 9.298289794921875 -169.205 80.3139 166.449 -1.02366 -10.5628 -0.111767 6.19784 -9.06166 0.271454 -10.0432 55.792 719.439 103.463 -78.7695 805.097 -113.9338 -9.33647 -11.9833 11.2493 11.3353 -29.1951 0.0 7.79774 0.0 23.2573 -11.1943 22.3985 0.0 0.0 0.0 0.0 0.0 0.0 110.1933 -6.33142 -357.531 -7.73831 1.09401 51.2926 0.0 14.4648 0.0 -20.4678 -8.86705 -45.846 0.0 0.0 0.0 0.0 0.0 0.0 1.04181 -6.68704 2.31876 0.0 6.28008 0.0 -14.9841 -0.15769958 9.26216 0.0 -26.686401 0.0 7.55096 -4.77738 6.88564 0.0 8.52979 0.0 10.5604 1.7811003 -20.454 0.0 -31.3505 0.0 
  -0.28636199951171876 5.1665802001953125 9.299000244140625 -169.229 80.3887 166.398 -0.986867 -10.5535 -0.0816042 6.18321 -8.98333 0.287777 -10.2308 55.953 719.617 103.203 -78.8217 804.817 -113.9462 -9.34049 -11.9049 11.3227 11.2839 -29.2224 0.0 7.7965 0.0 23.3189 -11.2359 22.3834 0.0 0.0 0.0 0.0 0.0 0.0 110.169 -6.29361 -357.59 -7.75281 1.09744 51.2789 0.0 14.502 0.0 -20.4898 -8.89644 -45.8105 0.0 0.0 0.0 0.0 0.0 0.0 1.04547 -6.62291 2.34744 0.0 6.28904 0.0 -14.9938 -0.1427002 9.30338 0.0 -26.667301 0.0 7.54777 -4.7311 6.89095 0.0 8.54913 0.0 10.5606 1.8181 -20.3969 0.0 -31.3451 0.0 
  -0.28884899139404296 5.16968994140625 9.299530029296875 -169.22 80.445 166.323 -0.940333 -10.5286 -0.0461843 6.16267 -8.91566 0.307777 -10.4758 56.0948 719.884 103.065 -78.8472 804.691 -113.9329 -9.38091 -11.8154 11.3401 11.2642 -29.2358 0.0 7.8189 0.0 23.32 -11.1604 22.1062 0.0 0.0 0.0 0.0 0.0 0.0 110.0948 -6.30586 -357.43 -7.68192 1.17232 50.9438 0.0 14.5294 0.0 -20.6378 -8.93187 -45.622 0.0 0.0 0.0 0.0 0.0 0.0 1.05562 -6.58616 2.39982 0.0 6.30459 0.0 -15.0016 -0.12629986 9.3317 0.0 -26.6775 0.0 7.55581 -4.7166 6.93796 0.0 8.58142 0.0 10.613 1.8388004 -20.3736 0.0 -31.383 0.0 
  -0.2913170051574707 5.17468994140625 9.299910278320313 -169.171 80.5011 166.222 -0.853373 -10.4378 -0.0344532 6.07328 -8.93126 0.299089 -10.6731 56.2379 720.115 102.597 -78.867 804.253 -113.8561 -9.45803 -11.8304 11.2773 11.243 -29.3386 0.0 7.91831 0.0 23.2497 -11.1714 22.101 0.0 0.0 0.0 0.0 0.0 0.0 110.1025 -6.3161 -357.476 -7.66379 1.30045 51.0229 0.0 14.5179 0.0 -20.6404 -8.80148 -45.5975 0.0 0.0 0.0 0.0 0.0 0.0 1.07424 -6.58913 2.51892 0.0 6.37225 0.0 -15.0118 -0.122400284 9.28529 0.0 -26.6516 0.0 7.56458 -4.74014 6.84124 0.0 8.67092 0.0 10.6313 1.8635998 -20.2416 0.0 -31.3505 0.0 
  -0.2930629920959473 5.180540161132813 9.301010131835938 -169.122 80.6214 166.045 -0.798935 -10.2643 0.0328883 6.04861 -8.95026 0.356959 -10.8134 56.3658 720.254 102.298 -78.8996 803.967 -113.8956 -9.50364 -11.8777 11.3157 11.3408 -29.4265 0.0 7.86666 0.0 23.2495 -11.1256 22.1922 0.0 0.0 0.0 0.0 0.0 0.0 110.109604 -6.16024 -357.691 -7.67189 1.09525 51.1691 0.0 14.6143 0.0 -20.4754 -8.90348 -45.4463 0.0 0.0 0.0 0.0 0.0 0.0 1.07765 -6.48322 2.61096 0.0 6.35899 0.0 -15.0173 -0.0795002 9.33562 0.0 -26.6467 0.0 7.56619 -4.71274 6.94214 0.0 8.76763 0.0 10.6856 1.8865995 -20.2072 0.0 -31.2683 0.0 
  -0.2950779914855957 5.187349853515625 9.302160034179687 -169.045 80.6717 165.907 -0.747318 -10.1698 0.0819735 6.02242 -8.9424 0.394703 -11.0298 56.5467 720.511 102.14 -78.9058 803.726 -113.8862 -9.4713 -11.946 11.2654 11.3134 -29.2222 0.0 7.96972 0.0 23.1721 -11.1943 22.0785 0.0 0.0 0.0 0.0 0.0 0.0 110.0833 -6.17448 -357.682 -7.60776 1.12657 51.2438 0.0 14.6554 0.0 -20.3781 -8.90589 -45.3996 0.0 0.0 0.0 0.0 0.0 0.0 1.10113 -6.48114 2.68168 0.0 6.38617 0.0 -15.031 -0.042099953 9.33975 0.0 -26.6868 0.0 7.58056 -4.74765 6.96408 0.0 8.84141 0.0 10.7795 1.9320002 -20.1588 0.0 -31.2166 0.0 
  -0.2965119934082031 5.19531982421875 9.303670043945312 -168.897 80.6757 165.749 -0.635061 -10.0912 0.113053 5.90397 -8.93302 0.399271 -11.0764 56.6628 720.6 101.541 -78.8919 803.142 -113.8114 -9.45093 -12.0814 11.1448 11.324 -29.153 0.0 8.04448 0.0 23.1741 -11.1284 22.132 0.0 0.0 0.0 0.0 0.0 0.0 110.0997 -6.18669 -357.568 -7.53071 1.18071 51.1296 0.0 14.6763 0.0 -20.3031 -8.91123 -45.0565 0.0 0.0 0.0 0.0 0.0 0.0 1.13359 -6.54613 2.59842 0.0 6.43481 0.0 -15.0548 -0.032999992 9.43782 0.0 -26.6681 0.0 7.59718 -4.85052 6.83602 0.0 8.94224 0.0 10.9401 2.0075998 -19.9888 0.0 -31.2987 0.0 
  -0.29778299331665037 5.203579711914062 9.306510009765624 -168.804 80.7413 165.594 -0.587961 -9.94047 0.156583 5.88505 -8.96536 0.435194 -11.1696 56.8258 720.71 100.873 -78.9091 802.484 -113.8247 -9.44393 -11.8157 11.1571 11.3129 -29.5299 0.0 8.02263 0.0 23.2275 -10.9665 22.1557 0.0 0.0 0.0 0.0 0.0 0.0 110.1267 -6.2143 -357.699 -7.53012 1.2471 51.1994 0.0 14.6383 0.0 -20.3928 -8.81743 -45.2724 0.0 0.0 0.0 0.0 0.0 0.0 1.15729 -6.53871 2.69985 0.0 6.4589 0.0 -15.0823 0.0795002 9.41916 0.0 -26.7184 0.0 7.5705 -4.97546 6.45519 0.0 9.18033 0.0 11.0661 2.1257 -19.515 0.0 -31.091 0.0 
  -0.298085994720459 5.211939697265625 9.308770141601563 -168.65 80.7512 165.365 -0.570894 -9.89664 0.185176 5.95398 -8.87604 0.453266 -11.3351 56.9132 720.91 100.506 -78.926 802.108 -113.83 -9.43881 -11.8088 11.0626 11.2742 -29.4792 0.0 8.08969 0.0 23.2295 -10.9806 21.9289 0.0 0.0 0.0 0.0 0.0 0.0 110.083 -6.15168 -357.656 -7.4831 1.27319 51.0968 0.0 14.6055 0.0 -20.393 -8.77025 -45.1891 0.0 0.0 0.0 0.0 0.0 0.0 1.19732 -6.61639 2.851 0.0 6.54853 0.0 -15.084 0.13609982 9.37224 0.0 -26.7176 0.0 7.57868 -5.12299 6.31561 0.0 9.38373 0.0 11.2166 2.1934996 -19.2368 0.0 -30.987999 0.0 
  -0.29658100128173825 5.227940063476563 9.312570190429687 -168.216 80.8226 164.845 -0.422989 -9.54279 0.262172 5.85518 -9.09406 0.512841 -10.3814 57.0239 719.73 98.8808 -78.9416 800.712 -113.7038 -9.43111 -11.776 10.8746 11.2673 -29.2097 0.0 8.18268 0.0 23.1767 -10.9893 21.6595 0.0 0.0 0.0 0.0 0.0 0.0 110.0586 -6.11584 -357.942 -7.39228 1.21854 51.1778 0.0 14.529 0.0 -20.288 -8.69695 -45.0398 0.0 0.0 0.0 0.0 0.0 0.0 1.2663 -6.73096 3.08274 0.0 6.74839 0.0 -15.0728 0.23340034 9.2621 0.0 -26.7428 0.0 7.60132 -5.28317 6.19322 0.0 9.62644 0.0 11.4105 2.3384 -18.9809 0.0 -30.9468 0.0 
